<svg width="13" height="13" viewBox="0 0 13 13" fill="none" xmlns="http://www.w3.org/2000/svg">
<path d="M12.5407 7.96875C12.3253 7.10809 12.0347 6.26566 11.6676 5.4516C11.6512 5.41427 11.6336 5.37722 11.616 5.33989C11.5984 5.30169 11.5811 5.26436 11.5635 5.22703C11.0243 4.08161 10.3326 2.99638 9.48552 2H9.48437C9.41027 2.04341 9.33501 2.08595 9.26062 2.1282L7.24634 3.28172L7.04018 3.3998L7.03817 3.40095C7.3784 4.68384 7.47931 6.00723 7.33284 7.28693C7.32765 7.32832 7.32361 7.36854 7.31727 7.40906C7.31525 7.43192 7.31208 7.45449 7.30891 7.47735C7.19963 8.26479 6.99751 9.02301 6.71524 9.74012C6.6668 9.35118 6.59471 8.96426 6.49985 8.58342C6.34732 7.97598 6.13713 7.3833 5.86696 6.81233C5.53192 6.1036 5.10404 5.42903 4.58476 4.80828L3.14483 5.63276L2.98798 5.72276C2.9949 5.74938 3.00153 5.77659 3.00758 5.80321C3.01076 5.81595 3.01364 5.8281 3.0171 5.84054C3.29765 7.02908 3.25959 8.26161 2.88793 9.38185C2.8862 9.38677 2.88475 9.39198 2.88274 9.3969C2.87668 9.41571 2.87005 9.43481 2.86342 9.45362C2.85534 9.47707 2.84669 9.5008 2.83804 9.52453C2.8343 9.53639 2.83026 9.54797 2.82594 9.55983C2.82594 9.55983 2.82593 9.55954 2.82565 9.55896V9.5581C2.82536 9.55491 2.82478 9.55115 2.82392 9.54797C2.79393 9.35436 2.75558 9.16134 2.70772 8.97063C2.58316 8.47113 2.3969 7.98669 2.14922 7.52858C1.96844 7.19346 1.75421 6.87252 1.50682 6.57039L0.574644 7.10433L0.442877 7.17986C0.670659 8.1363 0.580988 9.13674 0.154546 9.98987C0.107548 10.0842 0.0559363 10.1771 0 10.2677L0.146761 10.2874L1.13055 10.4182C1.36237 9.93141 1.51374 9.40703 1.58352 8.85834C1.5838 8.8595 1.58438 8.86095 1.58467 8.8621C1.58582 8.86673 1.58698 8.87079 1.58842 8.87513C1.6458 9.06352 1.69279 9.25307 1.72855 9.44378C1.7914 9.77369 1.82341 10.1065 1.82456 10.439C1.82456 10.4627 1.82456 10.487 1.82427 10.5108L2.33289 10.5788H2.33462L2.55836 10.6092L2.87207 10.6511L4.07239 10.8112C4.42906 10.0625 4.66174 9.25539 4.76958 8.4121C4.77159 8.41788 4.77448 8.42396 4.77534 8.42975C4.7765 8.43177 4.77736 8.4338 4.77736 8.43583C4.90509 8.85574 4.99909 9.27999 5.05877 9.70742C5.11759 10.1201 5.14325 10.5371 5.14008 10.9521V10.9541L5.1669 10.9573L6.06995 11.0783L6.24007 11.0991L6.24929 11.1003L8.75922 11.4354C9.31281 10.2694 9.67467 9.0123 9.84363 7.69932C9.84478 7.70453 9.84565 7.70858 9.84767 7.71263C9.84968 7.72189 9.85286 7.73028 9.85603 7.73955C10.2467 9.02561 10.4312 10.3426 10.4209 11.6565L12.998 12C13.0196 10.6384 12.8682 9.28201 12.5404 7.96817L12.5407 7.96875Z" fill="#6E6E6E"/>
</svg>
